# xmcd CD database file
#
# Track frame offsets:
#	150
#	3389
#	9443
#	27145
#	34479
#	53386
#	68957
#
# Disc length: 1228 seconds
#
# Revision: 0
# Processed by: cddbd v1.5PL3 Copyright (c) Steve Scherf et al.
# Submitted via: CDex 1.50beta9
#
DISCID=4b04ca07
DTITLE=Tears for the Dying - Prelude
DYEAR=2004
DGENRE=Deathrock
TTITLE0=A.L.F.
TTITLE1=Go Die
TTITLE2=All For Nothing
TTITLE3=Disease
TTITLE4=Time
TTITLE5=Porcelain
TTITLE6=Pretty
EXTD=YEAR: 2004
EXTT0=
EXTT1=
EXTT2=
EXTT3=
EXTT4=
EXTT5=
EXTT6=
PLAYORDER=
